<svg width="125" height="44" viewBox="0 0 125 44" version="1.1" xmlns="http://www.w3.org/2000/svg"><g id="UI-design" stroke="none" stroke-width="1" fill="none" fill-rule="evenodd"><g id="Homepage" transform="translate(-475 -386)" fill="#F6BBD4"><g id="Group-2" transform="translate(205 278)"><g id="Group-3-Copy" transform="translate(270 108)"><path d="M31.457 43c-.406 0-.824-.025-1.205-.079-1.026-.14-1.52-.44-1.191-.716 1.673-1.439 5.425-2.912 9.05-4.332a112.824 112.824 0 004.082-1.656c12.588-5.504 25.061-11.153 37.13-16.617 2.256-1.027 4.537-2.057 6.806-3.085.672-.301 2.193-.408 3.398-.245 1.217.163 1.66.544 1.001.842a2432.14 2432.14 0 00-6.82 3.085 4014.253 4014.253 0 01-22.83 10.286c4.272-1.784 8.67-3.625 13.12-5.334 1.065-.409 2.142-.817 3.22-1.229 12.524-4.769 25.454-9.698 33.732-15.008.76-.502 1.71-1.037 2.712-1.599 2.662-1.505 5.629-3.173 6.237-4.662-7.187 1.282-15.021 4.6-20.472 6.902-2.27.958-4.209 1.788-5.882 2.394-24.567 8.91-45.774 17.198-64.865 25.341-.697.293-2.243.396-3.435.223-1.191-.172-1.597-.553-.913-.848 19.154-8.168 40.438-16.478 65.08-25.417 1.56-.571 3.474-1.379 5.705-2.321 7.454-3.155 16.733-7.088 26.493-7.892a9.27 9.27 0 012.143.066c.633.103 1.064.27 1.128.458.862 2.033-3.119 4.273-6.617 6.252-.989.553-1.914 1.075-2.65 1.546-8.455 5.432-21.55 10.418-34.187 15.244-1.078.408-2.143.817-3.22 1.225-4.513 1.731-8.798 3.528-13.336 5.432C55.34 35.262 45.477 39.4 33.333 42.79c-.495.138-1.18.21-1.876.21" id="Fill-279"/><path d="M57.835 20.416c7.55 2.925 15.352 5.773 22.99 8.563 3.25 1.183 6.512 2.366 9.737 3.562 1.631.6 3.275 1.232 5.008 1.897 6.247 2.407 13.138 5.058 20.878 6.776a98.654 98.654 0 00-1.77-.67c-.734-.273-1.442-.534-2.087-.79C96.657 33.311 82.127 28.06 68.154 23.68a1678.455 1678.455 0 01-10.319-3.264zM122.492 44a7.01 7.01 0 01-.923-.057c-11.81-1.534-21.384-5.218-29.831-8.465-1.72-.665-3.338-1.29-4.932-1.873a2185.34 2185.34 0 00-9.724-3.561c-12.38-4.516-25.178-9.183-36.698-14.111a529.41 529.41 0 00-5.526-2.31c-1.05-.436-2.1-.868-3.149-1.309C21.833 9.41 11.68 6.672 1.094 4.351-.044 4.102-.347 3.601.437 3.23c.771-.363 2.326-.46 3.464-.212a406.118 406.118 0 0116.2 3.92c-3.339-1.835-6.108-3.785-7.84-5.927-.355-.428.442-.869 1.782-.983 1.34-.114 2.694.147 3.048.575C20.366 4.63 27.46 7.9 35.389 11.217c8.713 2.57 17.173 5.258 25.506 7.91 3.541 1.126 7.196 2.289 10.736 3.398 14.126 4.427 28.807 9.726 44.867 16.22.582.233 1.24.478 1.948.743 2.832 1.048 6.044 2.24 6.537 3.619.102.281-.265.558-.96.73a6.65 6.65 0 01-1.53.163z" id="Fill-280"/></g></g></g></g></svg>