<?xml version="1.0" encoding="UTF-8"?>
<svg width="171px" height="20px" viewBox="0 0 171 20" version="1.1" xmlns="http://www.w3.org/2000/svg" xmlns:xlink="http://www.w3.org/1999/xlink">
    <!-- Generator: sketchtool 55.2 (78181) - https://sketchapp.com -->
    <title>F5A1C78E-8E75-40AD-B49C-535E8F31C7E5</title>
    <desc>Created with sketchtool.</desc>
    <g id="UI-design" stroke="none" stroke-width="1" fill="none" fill-rule="evenodd">
        <g id="Homepage" transform="translate(-641.000000, -2045.000000)" fill="#12110C">
            <g id="Group-23" transform="translate(215.000000, 1964.000000)">
                <path d="M426.27504,92.1083383 C426.122738,91.7256211 426.021203,91.2740147 426.002742,90.7841367 C425.951975,89.3298112 426.611952,88.0744987 427.498075,87.9749922 C433.774779,87.3243729 440.143787,86.5895558 446.30511,85.8853561 C472.307279,82.9154703 499.195572,79.8384238 525.90387,81.4381818 C542.934045,82.463864 560.065754,84.4539936 576.823631,87.3626446 C577.792828,87.5310402 578.780486,87.6764727 579.818911,87.837214 C585.103342,88.6485745 591.089287,89.5517872 596.064497,93.2947617 C596.530635,93.6468616 596.867546,94.3510613 596.969081,95.1853849 C597.070616,96.0273628 596.918314,96.8923037 596.567557,97.5123057 C594.453784,101.25528 591.112363,101.086885 588.421687,100.941452 C587.8494,100.910835 587.309419,100.880217 586.82482,100.895526 C580.151207,101.048613 573.482209,100.107129 567.043972,99.2039158 C564.11792,98.7829269 561.094949,98.3542836 558.113515,98.0404555 C527.948414,94.8179763 500.755517,92.2767339 473.387242,93.9377267 C472.510349,93.9913071 471.767298,92.8508098 471.734992,91.3888299 C471.7073,89.9345044 472.390354,88.7098093 473.271861,88.6485745 C500.783208,86.9799274 528.063795,89.5288242 558.3212,92.7589576 C561.339556,93.0804401 564.376373,93.5090834 567.30704,93.922418 C573.680664,94.8256307 580.261972,95.7594607 586.778668,95.5987195 C587.332495,95.5910652 587.914013,95.6216825 588.518607,95.6522999 C589.160123,95.6829173 589.829331,95.721189 590.480077,95.698226 C587.004814,94.2515548 583.220331,93.677479 579.523536,93.1110575 C578.475881,92.9503162 577.483608,92.7972293 576.491335,92.6288338 C559.807302,89.7354915 542.74482,87.7530162 525.79772,86.727334 C499.246339,85.1352303 472.445736,88.2046225 446.526641,91.1668539 C440.360702,91.878708 433.982464,92.5982164 427.701144,93.25649 C427.115011,93.3253791 426.579645,92.8508098 426.27504,92.1083383" id="Fill-295"></path>
            </g>
        </g>
    </g>
</svg>